<svg xmlns="http://www.w3.org/2000/svg" version="1.1" xmlns:xlink="http://www.w3.org/1999/xlink" xmlns:svgjs="http://svgjs.dev/svgjs" width="1500" height="1500" viewBox="0 0 1500 1500"><g transform="matrix(1,0,0,1,-0.323615160350073,-0.3236151603499593)"><svg viewBox="0 0 343 343" data-background-color="#0a1627" preserveAspectRatio="xMidYMid meet" height="1500" width="1500" xmlns="http://www.w3.org/2000/svg" xmlns:xlink="http://www.w3.org/1999/xlink"><g id="tight-bounds" transform="matrix(1,0,0,1,0.0740000000000407,0.07400000000001228)"><svg viewBox="0 0 342.85155851775386 342.85155851775386" height="342.85155851775386" width="342.85155851775386"><g><svg></svg></g><g><svg viewBox="0 0 342.85155851775386 342.85155851775386" height="342.85155851775386" width="342.85155851775386"><g><path d="M0 171.426c0-94.676 76.75-171.426 171.426-171.426 94.676 0 171.426 76.75 171.426 171.426 0 94.676-76.75 171.426-171.426 171.426-94.676 0-171.426-76.75-171.426-171.426zM171.426 339.674c92.921 0 168.248-75.327 168.248-168.248 0-92.921-75.327-168.248-168.248-168.248-92.921 0-168.248 75.327-168.248 168.248 0 92.921 75.327 168.248 168.248 168.248z" data-fill-palette-color="tertiary" fill="#fe0039" stroke="transparent"></path><ellipse rx="164.56874808852186" ry="164.56874808852186" cx="171.42577925887693" cy="171.42577925887693" fill="#fe0039" stroke="transparent" stroke-width="0" fill-opacity="1" data-fill-palette-color="tertiary"></ellipse></g><g transform="matrix(1,0,0,1,64.84655864529837,94.16306821367272)"><svg viewBox="0 0 213.1584412271571 154.52542209040843" height="154.52542209040843" width="213.1584412271571"><g><svg viewBox="0 0 213.1584412271571 154.52542209040843" height="154.52542209040843" width="213.1584412271571"><g><svg viewBox="0 0 213.1584412271571 154.52542209040843" height="154.52542209040843" width="213.1584412271571"><g transform="matrix(1,0,0,1,0,89.19713353848957)"><svg viewBox="0 0 213.1584412271571 65.32828855191886" height="65.32828855191886" width="213.1584412271571"><g id="textblocktransform"><svg viewBox="0 0 213.1584412271571 65.32828855191886" height="65.32828855191886" width="213.1584412271571" id="textblock"><g><svg viewBox="0 0 213.1584412271571 35.23495722501066" height="35.23495722501066" width="213.1584412271571"><g transform="matrix(1,0,0,1,0,0)"><svg width="213.1584412271571" viewBox="3.3 -33.13 204.16 33.760000000000005" height="35.23495722501066" data-palette-color="#0a1627"><path d="M37.83 0L33.77 0 33.77-15.28Q33.77-17.2 33.29-18.61 32.8-20.03 31.69-20.8 30.58-21.58 28.7-21.58L28.7-21.58Q26.93-21.58 25.63-20.85 24.33-20.13 23.53-18.91 22.73-17.7 22.4-16.15L22.4-16.15 21.78-19.03 22.28-19.03Q22.68-20.6 23.63-21.95 24.58-23.3 26.2-24.13 27.83-24.95 30.23-24.95L30.23-24.95Q32.95-24.95 34.61-23.88 36.27-22.8 37.05-20.74 37.83-18.68 37.83-15.73L37.83-15.73 37.83 0ZM7.35 0L3.3 0 3.3-24.4 7.35-24.4 7.18-18.55 7.35-18.3 7.35 0ZM22.58 0L18.55 0 18.55-15.28Q18.55-17.2 18.06-18.61 17.57-20.03 16.48-20.8 15.38-21.58 13.5-21.58L13.5-21.58Q11.7-21.58 10.4-20.85 9.1-20.13 8.3-18.89 7.5-17.65 7.18-16.07L7.18-16.07 6.43-18.95 7.33-18.95Q7.7-20.6 8.63-21.96 9.55-23.33 11.14-24.14 12.73-24.95 15-24.95L15-24.95Q18.38-24.95 20.14-23.2 21.9-21.45 22.35-18.1L22.35-18.1Q22.48-17.6 22.53-17.01 22.58-16.43 22.58-15.85L22.58-15.85 22.58 0ZM53.8 0.63L53.8 0.63Q48.55 0.63 45.84-2.21 43.12-5.05 43.12-10.38L43.12-10.38 43.12-14.1Q43.12-19.4 45.85-22.23 48.57-25.05 53.8-25.05L53.8-25.05Q59.05-25.05 61.76-22.23 64.47-19.4 64.47-14.1L64.47-14.1 64.47-10.38Q64.47-5.05 61.76-2.21 59.05 0.63 53.8 0.63ZM53.8-2.68L53.8-2.68Q57.05-2.68 58.74-4.6 60.42-6.53 60.42-10.15L60.42-10.15 60.42-14.33Q60.42-17.93 58.74-19.84 57.05-21.75 53.8-21.75L53.8-21.75Q50.57-21.75 48.87-19.84 47.17-17.93 47.17-14.33L47.17-14.33 47.17-10.15Q47.17-6.53 48.87-4.6 50.57-2.68 53.8-2.68ZM90.47 0L86.42 0 86.42-15.18Q86.42-17.15 85.88-18.57 85.35-20 84.13-20.79 82.92-21.58 80.82-21.58L80.82-21.58Q78.9-21.58 77.5-20.85 76.1-20.13 75.23-18.89 74.37-17.65 74.02-16.07L74.02-16.07 73.12-18.95 74.17-18.95Q74.55-20.6 75.55-21.96 76.55-23.33 78.23-24.14 79.92-24.95 82.35-24.95L82.35-24.95Q85.25-24.95 87.03-23.85 88.82-22.75 89.65-20.69 90.47-18.63 90.47-15.63L90.47-15.63 90.47 0ZM74.15 0L70.1 0 70.1-33.13 74.12-33.13 74.12-25.18 74-18.18 74.15-17.85 74.15 0ZM115.24 0L111.22 0 111.39-5.93 111.24-6.55 111.24-14.33 111.27-15.75Q111.27-18.73 109.76-20.15 108.24-21.58 104.97-21.58L104.97-21.58Q102.34-21.58 100.16-20.83 97.97-20.08 96.27-19.07L96.27-19.07 96.64-22.53Q97.59-23.1 98.91-23.66 100.22-24.23 101.91-24.6 103.59-24.98 105.62-24.98L105.62-24.98Q108.24-24.98 110.08-24.34 111.92-23.7 113.06-22.5 114.19-21.3 114.72-19.6 115.24-17.9 115.24-15.8L115.24-15.8 115.24 0ZM102.82 0.53L102.82 0.53Q99.19 0.53 97.26-1.24 95.32-3 95.32-6.28L95.32-6.28 95.32-7Q95.32-10.38 97.41-12.04 99.49-13.7 104.04-14.35L104.04-14.35 111.77-15.45 111.99-12.5 104.54-11.43Q101.74-11.03 100.54-10.06 99.34-9.1 99.34-7.23L99.34-7.23 99.34-6.83Q99.34-4.9 100.53-3.88 101.72-2.85 104.09-2.85L104.09-2.85Q106.19-2.85 107.69-3.58 109.19-4.3 110.12-5.53 111.04-6.75 111.37-8.25L111.37-8.25 111.99-5.5 111.22-5.5Q110.87-3.9 109.91-2.53 108.94-1.15 107.22-0.31 105.49 0.53 102.82 0.53ZM155.97 0L151.92 0 151.92-15.28Q151.92-17.2 151.43-18.61 150.94-20.03 149.83-20.8 148.72-21.58 146.84-21.58L146.84-21.58Q145.07-21.58 143.77-20.85 142.47-20.13 141.67-18.91 140.87-17.7 140.54-16.15L140.54-16.15 139.92-19.03 140.42-19.03Q140.82-20.6 141.77-21.95 142.72-23.3 144.34-24.13 145.97-24.95 148.37-24.95L148.37-24.95Q151.09-24.95 152.75-23.88 154.42-22.8 155.19-20.74 155.97-18.68 155.97-15.73L155.97-15.73 155.97 0ZM125.49 0L121.44 0 121.44-24.4 125.49-24.4 125.32-18.55 125.49-18.3 125.49 0ZM140.72 0L136.69 0 136.69-15.28Q136.69-17.2 136.2-18.61 135.72-20.03 134.62-20.8 133.52-21.58 131.64-21.58L131.64-21.58Q129.84-21.58 128.54-20.85 127.24-20.13 126.44-18.89 125.64-17.65 125.32-16.07L125.32-16.07 124.57-18.95 125.47-18.95Q125.84-20.6 126.77-21.96 127.69-23.33 129.28-24.14 130.87-24.95 133.14-24.95L133.14-24.95Q136.52-24.95 138.28-23.2 140.04-21.45 140.49-18.1L140.49-18.1Q140.62-17.6 140.67-17.01 140.72-16.43 140.72-15.85L140.72-15.85 140.72 0ZM172.49 0.55L172.49 0.55Q166.91 0.55 164.09-2.18 161.26-4.9 161.26-9.98L161.26-9.98 161.26-14.33Q161.26-19.48 163.89-22.26 166.51-25.05 171.56-25.05L171.56-25.05Q174.96-25.05 177.24-23.79 179.51-22.53 180.66-20.2 181.81-17.88 181.81-14.65L181.81-14.65 181.81-13.75Q181.81-12.95 181.75-12.15 181.69-11.35 181.59-10.58L181.59-10.58 177.86-10.58Q177.91-11.78 177.93-12.85 177.94-13.93 177.94-14.83L177.94-14.83Q177.94-17.05 177.23-18.59 176.51-20.13 175.1-20.94 173.69-21.75 171.56-21.75L171.56-21.75Q168.41-21.75 166.84-19.93 165.26-18.1 165.26-14.7L165.26-14.7 165.26-12.38 165.29-11.88 165.29-9.55Q165.29-8.03 165.74-6.8 166.19-5.58 167.15-4.69 168.11-3.8 169.6-3.34 171.09-2.88 173.14-2.88L173.14-2.88Q175.51-2.88 177.56-3.5 179.61-4.13 181.41-5.2L181.41-5.2 181.04-1.7Q179.41-0.68 177.26-0.06 175.11 0.55 172.49 0.55ZM180.74-10.58L163.39-10.58 163.39-13.63 180.74-13.63 180.74-10.58ZM195.26 0.53L195.26 0.53Q190.86 0.53 188.56-2.2 186.26-4.93 186.26-10.15L186.26-10.15 186.26-14.18Q186.26-19.43 188.59-22.19 190.91-24.95 195.44-24.95L195.44-24.95Q197.69-24.95 199.34-24.19 200.99-23.43 202.01-22.05 203.04-20.68 203.39-18.8L203.39-18.8 204.71-18.8 203.51-15.08Q203.44-17.23 202.55-18.69 201.66-20.15 200.15-20.9 198.64-21.65 196.69-21.65L196.69-21.65Q193.59-21.65 191.95-19.85 190.31-18.05 190.31-14.55L190.31-14.55 190.31-9.9Q190.31-6.45 191.95-4.65 193.59-2.85 196.69-2.85L196.69-2.85Q198.54-2.85 199.96-3.56 201.39-4.28 202.32-5.54 203.26-6.8 203.61-8.4L203.61-8.4 204.61-5.5 203.41-5.5Q203.06-3.85 202.07-2.48 201.09-1.1 199.42-0.29 197.76 0.53 195.26 0.53ZM207.46 0L203.41 0 203.59-5.9 203.51-7.2 203.51-17.4 203.54-18.25 203.44-25.18 203.44-33.13 207.46-33.13 207.46 0Z" opacity="1" transform="matrix(1,0,0,1,0,0)" fill="#0a1627" class="wordmark-text-0" data-fill-palette-color="quaternary" id="text-0"></path></svg></g></svg></g><g transform="matrix(1,0,0,1,0,43.553084986862274)"><svg viewBox="0 0 213.1584412271571 21.77520356505659" height="21.77520356505659" width="213.1584412271571"><g transform="matrix(1,0,0,1,0,0)"><svg width="213.1584412271571" viewBox="1.54 -38.11 377.35999999999996 38.55" height="21.77520356505659" data-palette-color="#0a1627"><path d="M15.75 0.44L15.75 0.44Q10.74 0.44 6.88-2.2L6.88-2.2 6.08 0 1.54 0 1.54-9.64 6.98-9.64Q7.3-7.79 8.72-6.32 10.13-4.86 11.99-4.86L11.99-4.86Q12.7-4.86 13.22-5.25 13.75-5.64 13.75-6.54L13.75-6.54Q13.75-7.45 12.72-8.18L12.72-8.18Q11.67-8.94 9.59-9.91L9.59-9.91Q7.08-11.16 5.49-12.18L5.49-12.18Q3.88-13.21 2.71-14.88 1.54-16.55 1.54-18.9L1.54-18.9Q1.54-21.31 3.13-23.1L3.13-23.1Q4.71-24.85 7.3-25.76 9.89-26.66 12.94-26.66L12.94-26.66Q16.92-26.66 20.34-24.56L20.34-24.56 20.95-26.15 25-26.15 25-18.36 20.29-18.36Q19.68-19.95 18.53-20.85 17.38-21.75 15.84-21.75L15.84-21.75Q14.04-21.75 14.04-20.61L14.04-20.61Q14.06-19.82 14.99-19.26L14.99-19.26Q15.92-18.73 17.99-17.8L17.99-17.8Q19.29-17.26 20.36-16.72 21.44-16.19 22.29-15.7L22.29-15.7Q24-14.7 25.27-12.88 26.54-11.06 26.54-8.35L26.54-8.35Q26.54-5.47 25.05-3.52L25.05-3.52Q23.56-1.54 21.09-0.55 18.63 0.44 15.75 0.44ZM71.11-7.35L71.11 0 53.89 0 53.89-7.35 56.99-7.35 56.99-29.86 53.89-29.86 53.89-36.5 68.74-38.11 68.74-22.34Q69.69-24.1 72.07-25.38 74.45-26.66 77.36-26.66L77.36-26.66Q81.6-26.66 83.78-24.16 85.95-21.66 85.95-17.14L85.95-17.14 85.95-7.35 89.05-7.35 89.05 0 74.18 0 74.18-15.94Q74.18-17.41 73.34-18.36 72.5-19.31 71.4-19.31L71.4-19.31Q70.15-19.31 69.45-18.46 68.74-17.6 68.74-16.16L68.74-16.16 68.74-7.35 71.11-7.35ZM122.95 0.44L122.95 0.44Q120.46 0.44 118.43-0.54L118.43-0.54Q116.38-1.49 115.16-3.3 113.94-5.1 113.94-7.5L113.94-7.5Q113.94-10.08 115.38-11.89L115.38-11.89Q116.82-13.65 119.15-14.53 121.48-15.41 124.19-15.41L124.19-15.41Q127.39-15.41 130.35-14.45L130.35-14.45 130.35-15.55Q130.35-17.5 128.7-18.53 127.05-19.56 124.24-19.56L124.24-19.56Q123.05-19.56 121.56-19.26 120.07-18.97 118.65-18.46 117.24-17.94 116.19-17.31L116.19-17.31 115.48-17.6 115.48-24.71Q118.43-25.76 121.51-26.21 124.58-26.66 127.25-26.66L127.25-26.66Q142.09-26.66 142.09-18.31L142.09-18.31 142.09-7.35 144.38-7.35 144.38 0 131.88 0 130.79-4Q129.74-1.95 127.51-0.76 125.29 0.44 122.95 0.44ZM127.54-5.81L127.54-5.81Q128.34-5.81 129.19-6.08 130.03-6.35 130.35-6.64L130.35-6.64 130.35-10.74Q129.98-10.79 129.17-11.04L129.17-11.04Q128.34-11.25 127.73-11.25L127.73-11.25Q126.44-11.25 125.67-10.45 124.9-9.64 124.9-8.3L124.9-8.3Q124.9-7.3 125.62-6.56 126.34-5.81 127.54-5.81ZM197.06 0L193.91-10.5 190.2 0 179.36 0 173.55-18.6 170.3-18.6 170.3-26.15 187.61-26.15 187.61-18.6 185.29-18.6 187.56-9.55 192.71-26.15 199.21-26.15 204.5-9.25 206.94-18.6 204.04-18.6 204.04-26.15 217.49-26.15 217.49-18.6 214.2-18.6 208.65 0 197.06 0ZM276.88-18.6L272.97-18.6 268.77-15.09 273.83-7.35 277.66-7.35 277.66 0 266.01 0 258.86-10.69 258.86 0 242.87 0 242.87-7.35 247.17-7.35 247.17-29.86 242.87-29.86 242.87-36.5 258.86-38.11 258.86-14.36 263.96-18.6 261.28-18.6 261.28-26.15 276.88-26.15 276.88-18.6ZM312.02 0.44L312.02 0.44Q309.53 0.44 307.51-0.54L307.51-0.54Q305.45-1.49 304.23-3.3 303.01-5.1 303.01-7.5L303.01-7.5Q303.01-10.08 304.45-11.89L304.45-11.89Q305.89-13.65 308.23-14.53 310.56-15.41 313.27-15.41L313.27-15.41Q316.47-15.41 319.42-14.45L319.42-14.45 319.42-15.55Q319.42-17.5 317.77-18.53 316.12-19.56 313.32-19.56L313.32-19.56Q312.12-19.56 310.63-19.26 309.14-18.97 307.73-18.46 306.31-17.94 305.26-17.31L305.26-17.31 304.55-17.6 304.55-24.71Q307.51-25.76 310.58-26.21 313.66-26.66 316.32-26.66L316.32-26.66Q331.16-26.66 331.16-18.31L331.16-18.31 331.16-7.35 333.46-7.35 333.46 0 320.96 0 319.86-4Q318.81-1.95 316.59-0.76 314.37 0.44 312.02 0.44ZM316.61-5.81L316.61-5.81Q317.42-5.81 318.26-6.08 319.1-6.35 319.42-6.64L319.42-6.64 319.42-10.74Q319.05-10.79 318.25-11.04L318.25-11.04Q317.42-11.25 316.81-11.25L316.81-11.25Q315.51-11.25 314.74-10.45 313.98-9.64 313.98-8.3L313.98-8.3Q313.98-7.3 314.7-6.56 315.42-5.81 316.61-5.81ZM371.92 0.44L371.92 0.44Q362.52 0.44 362.52-9.35L362.52-9.35 362.52-18.99 358.62-18.99 358.62-26.15 362.52-26.15 362.52-31.74 374.22-34.35 374.22-26.15 378.9-26.15 378.9-18.99 374.22-18.99 374.22-10.21Q374.22-9.11 375.05-8.37 375.88-7.64 377.12-7.64L377.12-7.64Q378.02-7.64 378.9-7.79L378.9-7.79 378.9-1Q375.68 0.44 371.92 0.44Z" opacity="1" transform="matrix(1,0,0,1,0,0)" fill="#0a1627" class="slogan-text-1" data-fill-palette-color="quaternary" id="text-1"></path></svg></g></svg></g></svg></g></svg></g><g transform="matrix(1,0,0,1,40.713262274387006,0)"><svg viewBox="0 0 131.7319166783831 80.87900577663795" height="80.87900577663795" width="131.7319166783831"><g><svg xmlns="http://www.w3.org/2000/svg" xmlns:xlink="http://www.w3.org/1999/xlink" version="1.1" x="0" y="0" viewBox="3 14.58 60 36.838" enable-background="new 0 0 66 66" xml:space="preserve" height="80.87900577663795" width="131.7319166783831" class="icon-icon-0" data-fill-palette-color="quaternary" id="icon-0"><g fill="#0a1627" data-fill-palette-color="quaternary"><path d="M41.843 22.3C36.038 23.847 35.344 28.893 35.494 32.034H35.456C35.463 31.953 35.48 31.874 35.48 31.79A2.48 2.48 0 1 0 30.52 31.79C30.52 31.873 30.537 31.953 30.545 32.034H30.515C30.732 27.264 28.894 23.617 24.157 22.3L3 14.582C5.183 20.034 12.562 33.116 18.427 34.04L21.07 40.643C24.063 39.806 26.441 38.276 28.64 36.142L25.957 44.338 33 51.418 40.052 44.338 37.361 36.142C38.814 37.558 41.187 39.574 44.929 40.642L47.573 34.042C54.663 32.944 63 15.688 63 14.58z" fill="#0a1627" data-fill-palette-color="quaternary"></path></g></svg></g></svg></g><g></g></svg></g></svg></g></svg></g></svg></g><defs></defs></svg><rect width="342.85155851775386" height="342.85155851775386" fill="none" stroke="none" visibility="hidden"></rect></g></svg></g></svg>